<svg xmlns="http://www.w3.org/2000/svg" viewBox="0 0 256 256" role="img" aria-label="小七的博客星辰图标">
  <defs>
    <radialGradient id="sky" cx="36%" cy="28%" r="78%">
      <stop offset="0%" stop-color="#4f7cff"/>
      <stop offset="48%" stop-color="#1c2a6f"/>
      <stop offset="100%" stop-color="#08111f"/>
    </radialGradient>
    <radialGradient id="glow" cx="50%" cy="50%" r="50%">
      <stop offset="0%" stop-color="#fff7b0"/>
      <stop offset="48%" stop-color="#74e8ff"/>
      <stop offset="100%" stop-color="#74e8ff" stop-opacity="0"/>
    </radialGradient>
    <linearGradient id="trail" x1="44" y1="176" x2="214" y2="72">
      <stop offset="0%" stop-color="#8df6ff" stop-opacity="0"/>
      <stop offset="52%" stop-color="#9ff7ff" stop-opacity=".82"/>
      <stop offset="100%" stop-color="#fff6a8"/>
    </linearGradient>
    <filter id="softShadow" x="-30%" y="-30%" width="160%" height="160%">
      <feDropShadow dx="0" dy="10" stdDeviation="12" flood-color="#020617" flood-opacity=".45"/>
    </filter>
  </defs>
  <rect width="256" height="256" rx="56" fill="url(#sky)"/>
  <circle cx="188" cy="74" r="62" fill="url(#glow)" opacity=".9"/>
  <path d="M42 177c49-55 106-88 172-100" fill="none" stroke="url(#trail)" stroke-width="17" stroke-linecap="round" opacity=".95"/>
  <path d="M53 190c44-30 87-45 134-46" fill="none" stroke="#d6fbff" stroke-width="7" stroke-linecap="round" opacity=".42"/>
  <g filter="url(#softShadow)">
    <path d="M178 38l12 33 33 12-33 12-12 33-12-33-33-12 33-12z" fill="#fff7b0"/>
    <path d="M178 55l6 20 20 8-20 7-6 21-7-21-20-7 20-8z" fill="#ffffff"/>
  </g>
  <path d="M83 55l6 16 16 6-16 6-6 16-6-16-16-6 16-6z" fill="#c8fbff" opacity=".92"/>
  <path d="M66 123l4 10 10 4-10 4-4 10-4-10-10-4 10-4z" fill="#ffffff" opacity=".84"/>
  <path d="M205 162l5 13 13 5-13 5-5 13-5-13-13-5 13-5z" fill="#96f4ff" opacity=".78"/>
  <circle cx="118" cy="42" r="4.5" fill="#ffffff" opacity=".72"/>
  <circle cx="41" cy="87" r="3.5" fill="#bdf7ff" opacity=".72"/>
  <circle cx="134" cy="195" r="4" fill="#ffffff" opacity=".55"/>
  <circle cx="219" cy="124" r="3.5" fill="#fff7b0" opacity=".75"/>
</svg>
